<svg id="Layer_1" data-name="Layer 1" xmlns="http://www.w3.org/2000/svg" xmlns:xlink="http://www.w3.org/1999/xlink" viewBox="0 0 33.99 33.99"><defs><linearGradient id="linear-gradient" x1="17" y1="33.99" x2="17" gradientUnits="userSpaceOnUse"><stop offset="0" stop-color="#8e2de2"/><stop offset="1" stop-color="#4a00e0"/></linearGradient></defs><circle cx="17" cy="17" r="17" style="fill:url(#linear-gradient)"/><path d="M6.9,22.8a.33.33,0,0,1-.25-.1.36.36,0,0,1-.1-.24.61.61,0,0,1,0-.15l3.95-10.68a.62.62,0,0,1,.2-.31.58.58,0,0,1,.41-.13h2.13a.59.59,0,0,1,.41.13.62.62,0,0,1,.2.31l4,10.68a.61.61,0,0,1,0,.15.42.42,0,0,1-.1.24.33.33,0,0,1-.25.1H15.76a.47.47,0,0,1-.36-.11.54.54,0,0,1-.15-.22l-.72-1.86H9.85l-.71,1.86a.54.54,0,0,1-.15.22.49.49,0,0,1-.36.11Zm3.57-4.33H13.9l-1.71-4.78Z" style="fill:#fff"/><path d="M19.62,22.8a.4.4,0,0,1-.3-.11.44.44,0,0,1-.11-.3V11.6a.38.38,0,0,1,.41-.41H27a.4.4,0,0,1,.29.11.41.41,0,0,1,.12.3V13a.41.41,0,0,1-.12.3.37.37,0,0,1-.29.12H21.8v2.8h4.89a.39.39,0,0,1,.3.12.41.41,0,0,1,.12.3v1.41a.38.38,0,0,1-.12.28.39.39,0,0,1-.3.12H21.8v3.93a.41.41,0,0,1-.12.3.4.4,0,0,1-.3.11Z" style="fill:#fff"/></svg>