<svg id="Layer_1" data-name="Layer 1" xmlns="http://www.w3.org/2000/svg" xmlns:xlink="http://www.w3.org/1999/xlink" viewBox="0 0 33.99 33.99"><defs><linearGradient id="linear-gradient" x1="17" y1="33.99" x2="17" gradientUnits="userSpaceOnUse"><stop offset="0" stop-color="#8e2de2"/><stop offset="1" stop-color="#4a00e0"/></linearGradient></defs><circle cx="17" cy="17" r="17" style="fill:url(#linear-gradient)"/><path id="Layer" d="M16.93,3.53A2.27,2.27,0,1,0,19.2,5.8,2.27,2.27,0,0,0,16.93,3.53ZM6.72,8.63A2.27,2.27,0,1,0,9,10.9,2.27,2.27,0,0,0,6.72,8.63Zm20.42,0A2.27,2.27,0,1,0,29.4,10.9,2.27,2.27,0,0,0,27.14,8.63Zm-10.78.52v4.07a3.22,3.22,0,0,1,1.13,0V9.15a3.22,3.22,0,0,1-1.13,0ZM23.93,12l-4.35,2.42a3.44,3.44,0,0,1,.55,1L24.48,13A3.36,3.36,0,0,1,23.93,12Zm-14,0a3.69,3.69,0,0,1-.55,1l4.34,2.44a3.24,3.24,0,0,1,.54-1Zm9.23,4a2.24,2.24,0,0,0-2.22-1.77,2.28,2.28,0,0,0-2.22,1.77" style="fill:#fff"/><rect x="4.66" y="16.08" width="24.53" height="0.99" style="fill:#fff"/><path d="M9.27,28.61a.22.22,0,0,1-.19-.08A.25.25,0,0,1,9,28.35a.36.36,0,0,1,0-.11l3-8.1a.61.61,0,0,1,.15-.24.51.51,0,0,1,.32-.1h1.61a.48.48,0,0,1,.31.1.54.54,0,0,1,.16.24l3,8.1a.37.37,0,0,1,0,.11.24.24,0,0,1-.07.18.22.22,0,0,1-.19.08H16a.44.44,0,0,1-.28-.08.69.69,0,0,1-.11-.17L15.06,27H11.51L11,28.36a.69.69,0,0,1-.11.17.44.44,0,0,1-.28.08ZM12,25.33h2.6l-1.3-3.63Z" style="fill:#fff"/><path d="M18.92,28.61a.36.36,0,0,1-.23-.08.31.31,0,0,1-.08-.23V20.12a.3.3,0,0,1,.08-.23.32.32,0,0,1,.23-.09h5.61a.31.31,0,0,1,.32.32v1.07a.29.29,0,0,1-.09.22.3.3,0,0,1-.23.09h-4v2.13h3.71a.32.32,0,0,1,.23.09.29.29,0,0,1,.09.22V25a.29.29,0,0,1-.09.22.32.32,0,0,1-.23.09H20.57v3a.32.32,0,0,1-.09.23.34.34,0,0,1-.23.08Z" style="fill:#fff"/></svg>