<svg id="Layer_1" data-name="Layer 1" xmlns="http://www.w3.org/2000/svg" xmlns:xlink="http://www.w3.org/1999/xlink" viewBox="0 0 231.03 54.92"><defs><linearGradient id="linear-gradient" x1="27.46" y1="54.92" x2="27.46" gradientUnits="userSpaceOnUse"><stop offset="0" stop-color="#8e2de2"/><stop offset="1" stop-color="#4a00e0"/></linearGradient></defs><rect width="54.92" height="54.92" style="fill:url(#linear-gradient)"/><path d="M75.44,22.15a.47.47,0,0,1-.36-.16.5.5,0,0,1-.15-.35,1.5,1.5,0,0,1,0-.22L80.71,5.88A.91.91,0,0,1,81,5.42a.85.85,0,0,1,.6-.19h3.1a.88.88,0,0,1,.6.19,1,1,0,0,1,.29.46l5.75,15.54a.78.78,0,0,1,0,.22.5.5,0,0,1-.15.35.48.48,0,0,1-.36.16H88.35a.76.76,0,0,1-.54-.17.87.87,0,0,1-.21-.32l-1-2.7H79.74l-1,2.7a.8.8,0,0,1-.22.32.73.73,0,0,1-.53.17Zm5.19-6.31h5l-2.49-7Z"/><path d="M98.59,22.39a6.93,6.93,0,0,1-3.1-.66,5,5,0,0,1-2.12-1.89,6.13,6.13,0,0,1-.84-3c0-.26,0-.58,0-1s0-.72,0-1a6.17,6.17,0,0,1,.83-3A4.93,4.93,0,0,1,95.48,10a7,7,0,0,1,3.11-.65,7.54,7.54,0,0,1,2.76.44,5.8,5.8,0,0,1,1.86,1.13,4.92,4.92,0,0,1,1.08,1.41,3.56,3.56,0,0,1,.37,1.29.51.51,0,0,1-.16.43.58.58,0,0,1-.42.18h-2.59a.5.5,0,0,1-.37-.14,1.25,1.25,0,0,1-.25-.37A2.64,2.64,0,0,0,100,12.5a2.34,2.34,0,0,0-1.33-.36,2.18,2.18,0,0,0-1.72.7A3.41,3.41,0,0,0,96.27,15c0,.62,0,1.2,0,1.71A3.46,3.46,0,0,0,97,18.91a2.19,2.19,0,0,0,1.71.67,2.29,2.29,0,0,0,1.35-.36,2.63,2.63,0,0,0,.85-1.21.91.91,0,0,1,.24-.37.52.52,0,0,1,.38-.13h2.59a.58.58,0,0,1,.42.18.49.49,0,0,1,.16.42,3.52,3.52,0,0,1-.23,1,4.25,4.25,0,0,1-.65,1.13,5.2,5.2,0,0,1-1.15,1.08,6.23,6.23,0,0,1-1.7.8A8.21,8.21,0,0,1,98.59,22.39Z"/><path d="M112.61,22.39a6.93,6.93,0,0,1-3.1-.66,5,5,0,0,1-2.12-1.89,6,6,0,0,1-.84-3c0-.26,0-.58,0-1s0-.72,0-1a6.07,6.07,0,0,1,.83-3A5,5,0,0,1,109.49,10a7.08,7.08,0,0,1,3.12-.65,7.54,7.54,0,0,1,2.76.44,5.8,5.8,0,0,1,1.86,1.13,4.71,4.71,0,0,1,1.07,1.41,3.4,3.4,0,0,1,.38,1.29.51.51,0,0,1-.16.43.58.58,0,0,1-.42.18h-2.59a.5.5,0,0,1-.37-.14,1.47,1.47,0,0,1-.26-.37A2.5,2.5,0,0,0,114,12.5a2.28,2.28,0,0,0-1.32-.36,2.18,2.18,0,0,0-1.72.7,3.35,3.35,0,0,0-.68,2.18c0,.62,0,1.2,0,1.71a3.46,3.46,0,0,0,.69,2.18,2.19,2.19,0,0,0,1.71.67,2.29,2.29,0,0,0,1.35-.36,2.55,2.55,0,0,0,.84-1.21,1,1,0,0,1,.25-.37.52.52,0,0,1,.38-.13h2.59a.58.58,0,0,1,.42.18.49.49,0,0,1,.16.42,3.52,3.52,0,0,1-.23,1,4.25,4.25,0,0,1-.65,1.13,5.2,5.2,0,0,1-1.15,1.08,6.23,6.23,0,0,1-1.7.8A8.21,8.21,0,0,1,112.61,22.39Z"/><path d="M125.67,22.39a4.79,4.79,0,0,1-2.48-.64,4.26,4.26,0,0,1-1.67-1.86,6.69,6.69,0,0,1-.59-3V10.18a.54.54,0,0,1,.17-.43.53.53,0,0,1,.41-.17h2.56a.58.58,0,0,1,.6.6v6.6c0,1.8.79,2.71,2.37,2.71a2.32,2.32,0,0,0,1.8-.72,2.77,2.77,0,0,0,.67-2v-6.6a.58.58,0,0,1,.6-.6h2.56a.55.55,0,0,1,.42.17.57.57,0,0,1,.16.43V21.54a.61.61,0,0,1-.16.44.59.59,0,0,1-.42.17h-2.36a.6.6,0,0,1-.44-.17.62.62,0,0,1-.17-.44V20.6a4.12,4.12,0,0,1-1.62,1.33A5.79,5.79,0,0,1,125.67,22.39Z"/><path d="M136.88,22.15a.57.57,0,0,1-.41-.17.62.62,0,0,1-.17-.44V10.18a.58.58,0,0,1,.17-.43.53.53,0,0,1,.41-.17h2.25a.57.57,0,0,1,.42.17.55.55,0,0,1,.18.43V11a4.16,4.16,0,0,1,1.34-1.16,4.29,4.29,0,0,1,2.05-.5A3.77,3.77,0,0,1,147,11.46a4.17,4.17,0,0,1,1.61-1.53,4.85,4.85,0,0,1,4.58,0,4,4,0,0,1,1.6,1.74,6.61,6.61,0,0,1,.6,3v6.89a.62.62,0,0,1-.17.44.58.58,0,0,1-.41.17h-2.4A.58.58,0,0,1,152,22a.62.62,0,0,1-.17-.44V14.85a3.39,3.39,0,0,0-.29-1.56,1.72,1.72,0,0,0-.76-.81,2.26,2.26,0,0,0-1.05-.24,2.15,2.15,0,0,0-1,.24,1.84,1.84,0,0,0-.77.81,3.38,3.38,0,0,0-.3,1.56v6.69a.58.58,0,0,1-.61.61h-2.37a.6.6,0,0,1-.43-.17.58.58,0,0,1-.17-.44V14.85a3.53,3.53,0,0,0-.29-1.56,1.77,1.77,0,0,0-.76-.81,2.26,2.26,0,0,0-1-.24,2.08,2.08,0,0,0-1,.25,1.93,1.93,0,0,0-.79.81,3.23,3.23,0,0,0-.3,1.52v6.72a.62.62,0,0,1-.17.44.57.57,0,0,1-.41.17Z"/><path d="M162.89,22.39a4.82,4.82,0,0,1-2.48-.64,4.32,4.32,0,0,1-1.67-1.86,6.84,6.84,0,0,1-.59-3V10.18a.58.58,0,0,1,.17-.43.53.53,0,0,1,.41-.17h2.56a.58.58,0,0,1,.61.6v6.6c0,1.8.79,2.71,2.37,2.71a2.35,2.35,0,0,0,1.8-.72,2.81,2.81,0,0,0,.66-2v-6.6a.58.58,0,0,1,.17-.43.57.57,0,0,1,.44-.17h2.56a.53.53,0,0,1,.41.17.58.58,0,0,1,.17.43V21.54a.62.62,0,0,1-.17.44.57.57,0,0,1-.41.17h-2.37a.58.58,0,0,1-.61-.61V20.6a4,4,0,0,1-1.61,1.33A5.87,5.87,0,0,1,162.89,22.39Z"/><path d="M174.13,22.15a.6.6,0,0,1-.44-.17.62.62,0,0,1-.17-.44V5.59a.62.62,0,0,1,.17-.44.6.6,0,0,1,.44-.17h2.41a.59.59,0,0,1,.42.17.61.61,0,0,1,.16.44v16A.61.61,0,0,1,177,22a.59.59,0,0,1-.42.17Z"/><path d="M183.87,22.39a5.18,5.18,0,0,1-2.3-.5A4.36,4.36,0,0,1,180,20.55a3.3,3.3,0,0,1,.79-4.59,8.62,8.62,0,0,1,3.66-1.36l3.17-.45v-.44a2.17,2.17,0,0,0-.44-1.45,1.92,1.92,0,0,0-1.52-.51,2.31,2.31,0,0,0-1.28.32,2,2,0,0,0-.75.82.62.62,0,0,1-.56.31h-2.29a.53.53,0,0,1-.41-.15.48.48,0,0,1-.13-.38,2.07,2.07,0,0,1,.32-1,4.16,4.16,0,0,1,1-1.1,5.43,5.43,0,0,1,1.66-.9,7.53,7.53,0,0,1,2.49-.36,8.31,8.31,0,0,1,2.61.36,4.33,4.33,0,0,1,1.74,1,4.12,4.12,0,0,1,1,1.51,5.36,5.36,0,0,1,.31,1.85v7.47a.61.61,0,0,1-.16.44.62.62,0,0,1-.44.17h-2.37a.57.57,0,0,1-.41-.17.62.62,0,0,1-.17-.44v-.89a4,4,0,0,1-.84.86,4.58,4.58,0,0,1-1.27.64A5.65,5.65,0,0,1,183.87,22.39Zm1-2.52a3,3,0,0,0,1.42-.33,2.43,2.43,0,0,0,1-1,3.87,3.87,0,0,0,.36-1.77v-.41l-2.24.36a4.71,4.71,0,0,0-1.91.66,1.25,1.25,0,0,0-.33,1.86,1.71,1.71,0,0,0,.74.5A2.61,2.61,0,0,0,184.84,19.87Z"/><path d="M200.13,22.15a6.06,6.06,0,0,1-2.56-.5,3.35,3.35,0,0,1-1.6-1.53,5.54,5.54,0,0,1-.55-2.61V12.43h-1.88a.58.58,0,0,1-.61-.61V10.18a.58.58,0,0,1,.17-.43.57.57,0,0,1,.44-.17h1.88v-4a.59.59,0,0,1,.18-.44A.61.61,0,0,1,196,5h2.36a.6.6,0,0,1,.44.17.62.62,0,0,1,.17.44v4h3a.53.53,0,0,1,.41.17.58.58,0,0,1,.17.43v1.64a.6.6,0,0,1-.17.44.57.57,0,0,1-.41.17h-3v4.78a2.65,2.65,0,0,0,.33,1.44,1.23,1.23,0,0,0,1.14.52h1.77a.58.58,0,0,1,.58.58v1.79a.62.62,0,0,1-.17.44.57.57,0,0,1-.41.17Z"/><path d="M210.53,22.39a6.16,6.16,0,0,1-4.41-1.55,6.17,6.17,0,0,1-1.73-4.5v-1a7.35,7.35,0,0,1,.84-3.21,5.08,5.08,0,0,1,2.11-2,6.63,6.63,0,0,1,3.16-.71,6.37,6.37,0,0,1,3.4.83,5.18,5.18,0,0,1,2,2.27,7.55,7.55,0,0,1,.69,3.3v.56a.55.55,0,0,1-.18.41.61.61,0,0,1-.42.17h-7.9v.19a3.55,3.55,0,0,0,.3,1.41,2.42,2.42,0,0,0,.8,1,2,2,0,0,0,1.24.39,2.55,2.55,0,0,0,1-.17,2.14,2.14,0,0,0,.64-.41,3.2,3.2,0,0,0,.38-.41,1.44,1.44,0,0,1,.35-.31,1.1,1.1,0,0,1,.42-.06h2.51a.59.59,0,0,1,.4.14.41.41,0,0,1,.14.37,2.16,2.16,0,0,1-.4,1,4.6,4.6,0,0,1-1.1,1.11,6.58,6.58,0,0,1-1.8.9A7.56,7.56,0,0,1,210.53,22.39Zm-2.39-7.71h4.73v0a3.88,3.88,0,0,0-.27-1.51,2.4,2.4,0,0,0-.81-1,2.27,2.27,0,0,0-1.29-.36,2.24,2.24,0,0,0-1.28.36,2.4,2.4,0,0,0-.81,1,3.88,3.88,0,0,0-.27,1.51Z"/><path d="M223.73,22.39a5.62,5.62,0,0,1-2.16-.4A4.28,4.28,0,0,1,220,20.83,5,5,0,0,1,219,19a9.28,9.28,0,0,1-.41-2.34c0-.3,0-.58,0-.83s0-.52,0-.81a7.9,7.9,0,0,1,.4-2.3,5.42,5.42,0,0,1,1-1.8,4.28,4.28,0,0,1,1.59-1.18,5.35,5.35,0,0,1,2.17-.42,5.06,5.06,0,0,1,2.15.42,4.44,4.44,0,0,1,1.47,1.1V5.59a.62.62,0,0,1,.17-.44A.6.6,0,0,1,228,5h2.48a.59.59,0,0,1,.42.17.62.62,0,0,1,.17.44v16a.62.62,0,0,1-.17.44.59.59,0,0,1-.42.17h-2.32a.58.58,0,0,1-.41-.17.62.62,0,0,1-.17-.44v-.82a4.93,4.93,0,0,1-1.52,1.2A5,5,0,0,1,223.73,22.39Zm1.11-2.9a2.39,2.39,0,0,0,1.44-.41,2.45,2.45,0,0,0,.79-1,3.79,3.79,0,0,0,.28-1.36c0-.3.05-.61.05-.92a8.69,8.69,0,0,0-.05-.89,3.23,3.23,0,0,0-.29-1.27,2.47,2.47,0,0,0-.81-1,2.35,2.35,0,0,0-1.41-.38,2.38,2.38,0,0,0-1.45.39,2.15,2.15,0,0,0-.76,1.06,4.91,4.91,0,0,0-.28,1.42,7.52,7.52,0,0,0,0,1.5,5,5,0,0,0,.28,1.43,2.17,2.17,0,0,0,.76,1.05A2.38,2.38,0,0,0,224.84,19.49Z"/><path d="M77,47.63a.58.58,0,0,1-.6-.6V31.32a.57.57,0,0,1,.17-.44.6.6,0,0,1,.43-.17H87.81a.58.58,0,0,1,.61.61v2a.62.62,0,0,1-.17.44.6.6,0,0,1-.44.16H80.2v4.09h7.13a.62.62,0,0,1,.44.17.59.59,0,0,1,.16.43v2.06a.56.56,0,0,1-.16.41.62.62,0,0,1-.44.17H80.2V47a.6.6,0,0,1-.17.43.56.56,0,0,1-.43.17Z"/><path d="M91.39,33.13A.57.57,0,0,1,91,33a.6.6,0,0,1-.17-.44V30.59a.64.64,0,0,1,.17-.45.54.54,0,0,1,.41-.18h2.54a.63.63,0,0,1,.45.18.61.61,0,0,1,.18.45v1.93a.57.57,0,0,1-.18.44.66.66,0,0,1-.45.17Zm.07,14.5a.54.54,0,0,1-.41-.17.6.6,0,0,1-.17-.43V35.67a.6.6,0,0,1,.17-.44.58.58,0,0,1,.41-.17h2.42a.62.62,0,0,1,.44.17.6.6,0,0,1,.16.44V47a.59.59,0,0,1-.16.43.58.58,0,0,1-.44.17Z"/><path d="M98.09,47.63a.55.55,0,0,1-.42-.17.59.59,0,0,1-.16-.43V35.67a.6.6,0,0,1,.16-.44.59.59,0,0,1,.42-.17h2.36a.58.58,0,0,1,.61.61v.94a5,5,0,0,1,1.62-1.28,5.2,5.2,0,0,1,2.41-.51,4.78,4.78,0,0,1,2.51.64,4.5,4.5,0,0,1,1.69,1.86,6.54,6.54,0,0,1,.61,3V47a.6.6,0,0,1-.6.6h-2.56a.58.58,0,0,1-.44-.17.6.6,0,0,1-.17-.43v-6.6a3,3,0,0,0-.61-2,2.26,2.26,0,0,0-1.8-.71,2.43,2.43,0,0,0-1.82.71,2.8,2.8,0,0,0-.67,2V47a.6.6,0,0,1-.17.43.53.53,0,0,1-.41.17Z"/><path d="M116.5,47.87a5.13,5.13,0,0,1-2.29-.49A4.21,4.21,0,0,1,112.59,46a3.23,3.23,0,0,1-.61-1.89,3.17,3.17,0,0,1,1.39-2.71A8.59,8.59,0,0,1,117,40.09l3.16-.46V39.2a2.15,2.15,0,0,0-.43-1.45,1.93,1.93,0,0,0-1.53-.51,2.33,2.33,0,0,0-1.28.31,2.27,2.27,0,0,0-.75.82.61.61,0,0,1-.55.32h-2.3a.51.51,0,0,1-.41-.16.42.42,0,0,1-.12-.37,2,2,0,0,1,.31-1,4.19,4.19,0,0,1,1-1.1,5.5,5.5,0,0,1,1.67-.91,7.53,7.53,0,0,1,2.49-.36,8.4,8.4,0,0,1,2.61.36,4.36,4.36,0,0,1,1.74,1,4.17,4.17,0,0,1,1,1.51,5.32,5.32,0,0,1,.31,1.85V47a.6.6,0,0,1-.17.43.56.56,0,0,1-.43.17h-2.37a.53.53,0,0,1-.41-.17.56.56,0,0,1-.17-.43v-.9a3.46,3.46,0,0,1-.85.86,4.2,4.2,0,0,1-1.27.64A5.6,5.6,0,0,1,116.5,47.87Zm1-2.51A2.93,2.93,0,0,0,118.9,45a2.32,2.32,0,0,0,1-1,3.83,3.83,0,0,0,.36-1.76v-.41l-2.25.36a4.64,4.64,0,0,0-1.91.65,1.29,1.29,0,0,0-.6,1.06,1.18,1.18,0,0,0,.28.8,1.61,1.61,0,0,0,.73.51A2.87,2.87,0,0,0,117.47,45.36Z"/><path d="M127.4,47.63a.54.54,0,0,1-.41-.17.6.6,0,0,1-.17-.43V35.67a.6.6,0,0,1,.17-.44.58.58,0,0,1,.41-.17h2.37a.58.58,0,0,1,.61.61v.94A5,5,0,0,1,132,35.33a5.2,5.2,0,0,1,2.41-.51,4.81,4.81,0,0,1,2.51.64,4.5,4.5,0,0,1,1.69,1.86,6.54,6.54,0,0,1,.61,3V47a.6.6,0,0,1-.6.6h-2.56a.58.58,0,0,1-.44-.17.6.6,0,0,1-.17-.43v-6.6a3,3,0,0,0-.61-2,2.26,2.26,0,0,0-1.8-.71,2.41,2.41,0,0,0-1.82.71,2.8,2.8,0,0,0-.67,2V47a.6.6,0,0,1-.17.43.54.54,0,0,1-.41.17Z"/><path d="M147.71,47.87a7,7,0,0,1-3.11-.65,5,5,0,0,1-2.11-1.9,6,6,0,0,1-.85-3c0-.26,0-.59,0-1s0-.72,0-1a6.25,6.25,0,0,1,.83-3,5,5,0,0,1,2.12-1.9,7.16,7.16,0,0,1,3.12-.65,7.43,7.43,0,0,1,2.75.45,5.79,5.79,0,0,1,1.86,1.12,4.51,4.51,0,0,1,1.08,1.42,3.6,3.6,0,0,1,.38,1.29.52.52,0,0,1-.16.42.58.58,0,0,1-.43.18h-2.58a.52.52,0,0,1-.38-.13,1.69,1.69,0,0,1-.25-.37,2.58,2.58,0,0,0-.87-1.21,2.34,2.34,0,0,0-1.33-.37,2.2,2.2,0,0,0-1.72.71,3.37,3.37,0,0,0-.67,2.17c0,.63,0,1.2,0,1.72a3.43,3.43,0,0,0,.69,2.17,2.19,2.19,0,0,0,1.7.68,2.27,2.27,0,0,0,1.35-.36A2.74,2.74,0,0,0,150,43.5a1.08,1.08,0,0,1,.24-.38.61.61,0,0,1,.39-.13h2.58a.58.58,0,0,1,.43.18.52.52,0,0,1,.16.42,3.83,3.83,0,0,1-.23,1,4.51,4.51,0,0,1-.66,1.14,5.42,5.42,0,0,1-1.15,1.07,5.71,5.71,0,0,1-1.7.8A8.18,8.18,0,0,1,147.71,47.87Z"/><path d="M161.75,47.87a5.64,5.64,0,0,1-6.14-6v-1a7.31,7.31,0,0,1,.85-3.2,5.08,5.08,0,0,1,2.1-2.06,6.77,6.77,0,0,1,3.17-.71,6.45,6.45,0,0,1,3.39.83,5.34,5.34,0,0,1,2.06,2.28,7.55,7.55,0,0,1,.69,3.3v.55a.54.54,0,0,1-.18.41.6.6,0,0,1-.43.17h-7.9v.2a3.63,3.63,0,0,0,.3,1.41,2.5,2.5,0,0,0,.8,1,2,2,0,0,0,1.24.38,2.32,2.32,0,0,0,1-.17,2,2,0,0,0,.64-.41,2.65,2.65,0,0,0,.38-.41,1.18,1.18,0,0,1,.35-.3,1.1,1.1,0,0,1,.42-.06H167a.6.6,0,0,1,.4.13.45.45,0,0,1,.13.38,2.13,2.13,0,0,1-.4,1A4.6,4.6,0,0,1,166,46.6a6.07,6.07,0,0,1-1.8.91A7.81,7.81,0,0,1,161.75,47.87Zm-2.39-7.71h4.74v0a3.87,3.87,0,0,0-.28-1.51,2.37,2.37,0,0,0-.81-1,2.26,2.26,0,0,0-3.37,1,3.7,3.7,0,0,0-.28,1.51Z"/><path id="Layer" d="M27.46,6.1a3.65,3.65,0,1,0,3.65,3.65A3.65,3.65,0,0,0,27.46,6.1ZM11,14.31A3.65,3.65,0,1,0,14.68,18,3.66,3.66,0,0,0,11,14.31Zm32.86,0A3.65,3.65,0,1,0,47.54,18,3.66,3.66,0,0,0,43.89,14.31Zm-17.34.83v6.55a5.5,5.5,0,0,1,.91-.08,5.4,5.4,0,0,1,.91.08V15.14a5.4,5.4,0,0,1-.91.08A5.5,5.5,0,0,1,26.55,15.14Zm12.18,4.64-7,3.89a5.57,5.57,0,0,1,.89,1.6l7-3.89A5.44,5.44,0,0,1,38.73,19.78Zm-22.54,0a5.51,5.51,0,0,1-.89,1.59l7,3.94a5.57,5.57,0,0,1,.87-1.61ZM31,26.29a3.61,3.61,0,0,0-3.58-2.85,3.65,3.65,0,0,0-3.56,2.85" style="fill:#fff"/><rect x="7.73" y="26.29" width="39.47" height="1.59" style="fill:#fff"/><path d="M15.14,46.46a.43.43,0,0,1-.43-.42.9.9,0,0,1,0-.18l4.82-13a.9.9,0,0,1,.25-.39.77.77,0,0,1,.5-.16h2.6a.77.77,0,0,1,.5.16.75.75,0,0,1,.25.39l4.82,13a.9.9,0,0,1,0,.18.42.42,0,0,1-.12.29.39.39,0,0,1-.31.13H26a.59.59,0,0,1-.45-.14.76.76,0,0,1-.18-.26l-.87-2.27H18.74l-.87,2.27a.64.64,0,0,1-.18.26.57.57,0,0,1-.44.14Zm4.35-5.28h4.2L21.6,35.34Z" style="fill:#fff"/><path d="M30.67,46.46a.45.45,0,0,1-.36-.14.46.46,0,0,1-.15-.36V32.79a.5.5,0,0,1,.15-.37.49.49,0,0,1,.36-.14h9a.52.52,0,0,1,.36.14.53.53,0,0,1,.14.37v1.72a.53.53,0,0,1-.14.37.52.52,0,0,1-.36.14H33.32v3.42h6a.49.49,0,0,1,.36.14.5.5,0,0,1,.15.37v1.72a.45.45,0,0,1-.15.34.46.46,0,0,1-.36.15h-6V46a.48.48,0,0,1-.5.5Z" style="fill:#fff"/></svg>