<svg id="Layer_1" data-name="Layer 1" xmlns="http://www.w3.org/2000/svg" xmlns:xlink="http://www.w3.org/1999/xlink" viewBox="0 0 54.92 54.92"><defs><linearGradient id="linear-gradient" x1="27.46" y1="54.92" x2="27.46" gradientUnits="userSpaceOnUse"><stop offset="0" stop-color="#8e2de2"/><stop offset="1" stop-color="#4a00e0"/></linearGradient></defs><rect width="54.92" height="54.92" style="fill:url(#linear-gradient)"/><path id="Layer" d="M27.46,6.1a3.65,3.65,0,1,0,3.65,3.65A3.65,3.65,0,0,0,27.46,6.1ZM11,14.31A3.65,3.65,0,1,0,14.68,18,3.66,3.66,0,0,0,11,14.31Zm32.86,0A3.65,3.65,0,1,0,47.54,18,3.66,3.66,0,0,0,43.89,14.31Zm-17.34.83v6.55a5.5,5.5,0,0,1,.91-.08,5.4,5.4,0,0,1,.91.08V15.14a5.4,5.4,0,0,1-.91.08A5.5,5.5,0,0,1,26.55,15.14Zm12.18,4.64-7,3.89a5.57,5.57,0,0,1,.89,1.6l7-3.89A5.44,5.44,0,0,1,38.73,19.78Zm-22.54,0a5.51,5.51,0,0,1-.89,1.59l7,3.94a5.57,5.57,0,0,1,.87-1.61Zm11.27,3.64a3.65,3.65,0,1,0,3.65,3.65A3.66,3.66,0,0,0,27.46,23.44ZM22.3,28.88l-7,3.91a5.57,5.57,0,0,1,.89,1.6l7-3.91A5.39,5.39,0,0,1,22.3,28.88ZM32.61,29a5.73,5.73,0,0,1-.39.83h0a5.8,5.8,0,0,1-.51.75l7,3.86a5.49,5.49,0,0,1,.88-1.59ZM11,32.56a3.66,3.66,0,1,0,3.65,3.66A3.66,3.66,0,0,0,11,32.56Zm32.86,0a3.66,3.66,0,1,0,3.65,3.66A3.66,3.66,0,0,0,43.89,32.56Z" style="fill:#fff"/><g id="layer1"><path id="path919" d="M32.71,43.63c0,2.53-2.35,4.59-5.25,4.59s-5.24-2.06-5.24-4.59,5.24-11.15,5.24-11.15S32.71,41.09,32.71,43.63Z" style="fill:#fff"/></g></svg>