<svg id="Layer_1" data-name="Layer 1" xmlns="http://www.w3.org/2000/svg" xmlns:xlink="http://www.w3.org/1999/xlink" viewBox="0 0 231.39 55.06"><defs><linearGradient id="linear-gradient" x1="27.53" y1="55.06" x2="27.53" gradientUnits="userSpaceOnUse"><stop offset="0" stop-color="#8e2de2"/><stop offset="1" stop-color="#4a00e0"/></linearGradient></defs><path d="M75.8,22.15a.5.5,0,0,1-.36-.16.54.54,0,0,1-.14-.35.78.78,0,0,1,0-.22L81.07,5.88a1,1,0,0,1,.29-.46A.89.89,0,0,1,82,5.23h3.09a.89.89,0,0,1,.61.19,1,1,0,0,1,.29.46l5.75,15.54a1.5,1.5,0,0,1,0,.22.54.54,0,0,1-.14.35.5.5,0,0,1-.36.16H88.71a.73.73,0,0,1-.53-.17.92.92,0,0,1-.22-.32l-1-2.7H80.11l-1,2.7a.92.92,0,0,1-.22.32.73.73,0,0,1-.53.17ZM81,15.84h5l-2.49-7Z"/><path d="M99,22.39a7,7,0,0,1-3.11-.66,5,5,0,0,1-2.11-1.89,6,6,0,0,1-.85-3c0-.26,0-.58,0-1s0-.72,0-1a6.18,6.18,0,0,1,.84-3A4.9,4.9,0,0,1,95.84,10,7,7,0,0,1,99,9.34a7.54,7.54,0,0,1,2.76.44,6,6,0,0,1,1.86,1.13,4.71,4.71,0,0,1,1.07,1.41,3.4,3.4,0,0,1,.38,1.29.54.54,0,0,1-.16.43.58.58,0,0,1-.42.18h-2.59a.48.48,0,0,1-.37-.14,1.26,1.26,0,0,1-.26-.37,2.5,2.5,0,0,0-.87-1.21A2.32,2.32,0,0,0,99,12.14a2.17,2.17,0,0,0-1.71.7A3.35,3.35,0,0,0,96.64,15c0,.62,0,1.2,0,1.71a3.46,3.46,0,0,0,.69,2.18,2.19,2.19,0,0,0,1.7.67,2.31,2.31,0,0,0,1.36-.36,2.62,2.62,0,0,0,.84-1.21,1.18,1.18,0,0,1,.24-.37.56.56,0,0,1,.39-.13h2.59a.58.58,0,0,1,.42.18.52.52,0,0,1,.16.42,3.93,3.93,0,0,1-.23,1,4.3,4.3,0,0,1-.66,1.13A5.14,5.14,0,0,1,103,21.29a6.16,6.16,0,0,1-1.71.8A8.14,8.14,0,0,1,99,22.39Z"/><path d="M113,22.39a7,7,0,0,1-3.11-.66,5,5,0,0,1-2.11-1.89,6,6,0,0,1-.85-3c0-.26,0-.58,0-1s0-.72,0-1a6.18,6.18,0,0,1,.84-3A4.9,4.9,0,0,1,109.86,10,7,7,0,0,1,113,9.34a7.45,7.45,0,0,1,2.75.44,6,6,0,0,1,1.87,1.13,4.71,4.71,0,0,1,1.07,1.41,3.6,3.6,0,0,1,.38,1.29.54.54,0,0,1-.16.43.58.58,0,0,1-.42.18h-2.59a.48.48,0,0,1-.37-.14,1.26,1.26,0,0,1-.26-.37,2.5,2.5,0,0,0-.87-1.21,2.32,2.32,0,0,0-1.33-.36,2.16,2.16,0,0,0-1.71.7,3.35,3.35,0,0,0-.68,2.18c0,.62,0,1.2,0,1.71a3.46,3.46,0,0,0,.69,2.18,2.19,2.19,0,0,0,1.7.67,2.31,2.31,0,0,0,1.36-.36,2.62,2.62,0,0,0,.84-1.21,1.18,1.18,0,0,1,.24-.37.56.56,0,0,1,.39-.13h2.59a.58.58,0,0,1,.42.18.52.52,0,0,1,.16.42,3.93,3.93,0,0,1-.23,1,4.3,4.3,0,0,1-.66,1.13A5.14,5.14,0,0,1,117,21.29a6.16,6.16,0,0,1-1.71.8A8.14,8.14,0,0,1,113,22.39Z"/><path d="M126,22.39a4.84,4.84,0,0,1-2.48-.64,4.3,4.3,0,0,1-1.66-1.86,6.69,6.69,0,0,1-.6-3V10.18a.58.58,0,0,1,.17-.43.54.54,0,0,1,.41-.17h2.57a.56.56,0,0,1,.43.17.58.58,0,0,1,.17.43v6.6c0,1.8.79,2.71,2.37,2.71a2.32,2.32,0,0,0,1.8-.72,2.81,2.81,0,0,0,.66-2v-6.6a.58.58,0,0,1,.61-.6H133a.53.53,0,0,1,.41.17.58.58,0,0,1,.17.43V21.54a.62.62,0,0,1-.17.44.57.57,0,0,1-.41.17h-2.37a.58.58,0,0,1-.6-.61V20.6a4.12,4.12,0,0,1-1.62,1.33A5.84,5.84,0,0,1,126,22.39Z"/><path d="M137.25,22.15a.55.55,0,0,1-.41-.17.58.58,0,0,1-.17-.44V10.18a.54.54,0,0,1,.17-.43.52.52,0,0,1,.41-.17h2.24a.57.57,0,0,1,.43.17.55.55,0,0,1,.18.43V11a4.16,4.16,0,0,1,1.34-1.16,4.22,4.22,0,0,1,2-.5,3.79,3.79,0,0,1,3.85,2.12,4.14,4.14,0,0,1,1.6-1.53,4.85,4.85,0,0,1,4.58,0,4,4,0,0,1,1.61,1.74,6.61,6.61,0,0,1,.59,3v6.89a.58.58,0,0,1-.17.44.57.57,0,0,1-.41.17h-2.39a.57.57,0,0,1-.41-.17.62.62,0,0,1-.17-.44V14.85a3.53,3.53,0,0,0-.29-1.56,1.77,1.77,0,0,0-.76-.81,2.31,2.31,0,0,0-1.05-.24,2.12,2.12,0,0,0-1,.24,1.86,1.86,0,0,0-.78.81,3.38,3.38,0,0,0-.3,1.56v6.69a.58.58,0,0,1-.6.61H145a.62.62,0,0,1-.44-.17.61.61,0,0,1-.16-.44V14.85a3.53,3.53,0,0,0-.29-1.56,1.79,1.79,0,0,0-.77-.81,2.19,2.19,0,0,0-1-.24,2.08,2.08,0,0,0-1,.25,1.88,1.88,0,0,0-.79.81,3.23,3.23,0,0,0-.3,1.52v6.72a.62.62,0,0,1-.17.44.57.57,0,0,1-.41.17Z"/><path d="M163.25,22.39a4.78,4.78,0,0,1-2.47-.64,4.26,4.26,0,0,1-1.67-1.86,6.69,6.69,0,0,1-.59-3V10.18a.54.54,0,0,1,.17-.43.53.53,0,0,1,.41-.17h2.56a.58.58,0,0,1,.6.6v6.6c0,1.8.79,2.71,2.37,2.71a2.32,2.32,0,0,0,1.8-.72,2.77,2.77,0,0,0,.67-2v-6.6a.58.58,0,0,1,.6-.6h2.56a.55.55,0,0,1,.42.17.57.57,0,0,1,.16.43V21.54a.61.61,0,0,1-.16.44.59.59,0,0,1-.42.17H167.9a.6.6,0,0,1-.44-.17.62.62,0,0,1-.17-.44V20.6a4.12,4.12,0,0,1-1.62,1.33A5.84,5.84,0,0,1,163.25,22.39Z"/><path d="M174.49,22.15a.6.6,0,0,1-.43-.17.62.62,0,0,1-.17-.44V5.59a.62.62,0,0,1,.17-.44.6.6,0,0,1,.43-.17h2.42a.57.57,0,0,1,.41.17.62.62,0,0,1,.17.44v16a.62.62,0,0,1-.17.44.57.57,0,0,1-.41.17Z"/><path d="M184.23,22.39a5.17,5.17,0,0,1-2.29-.5,4.21,4.21,0,0,1-1.62-1.34A3.28,3.28,0,0,1,181.1,16a8.72,8.72,0,0,1,3.67-1.36l3.16-.45v-.44a2.16,2.16,0,0,0-.43-1.45,1.93,1.93,0,0,0-1.53-.51,2.33,2.33,0,0,0-1.28.32,2.19,2.19,0,0,0-.75.82.59.59,0,0,1-.55.31h-2.3a.54.54,0,0,1-.41-.15.44.44,0,0,1-.12-.38,2,2,0,0,1,.31-1,4.35,4.35,0,0,1,1-1.1,5.49,5.49,0,0,1,1.67-.9A7.53,7.53,0,0,1,186,9.34a8.4,8.4,0,0,1,2.61.36,4.47,4.47,0,0,1,1.74,1,4.12,4.12,0,0,1,1,1.51,5.36,5.36,0,0,1,.31,1.85v7.47a.62.62,0,0,1-.17.44.6.6,0,0,1-.43.17h-2.37a.57.57,0,0,1-.41-.17.58.58,0,0,1-.17-.44v-.89a3.83,3.83,0,0,1-.85.86,4.45,4.45,0,0,1-1.27.64A5.6,5.6,0,0,1,184.23,22.39Zm1-2.52a3,3,0,0,0,1.43-.33,2.43,2.43,0,0,0,1-1,3.87,3.87,0,0,0,.36-1.77v-.41l-2.25.36a4.77,4.77,0,0,0-1.91.66,1.27,1.27,0,0,0-.6,1.06,1.2,1.2,0,0,0,.28.8,1.67,1.67,0,0,0,.73.5A2.64,2.64,0,0,0,185.2,19.87Z"/><path d="M200.5,22.15a6,6,0,0,1-2.56-.5,3.37,3.37,0,0,1-1.61-1.53,5.67,5.67,0,0,1-.54-2.61V12.43H193.9a.6.6,0,0,1-.43-.17.57.57,0,0,1-.17-.44V10.18a.54.54,0,0,1,.17-.43.56.56,0,0,1,.43-.17h1.89v-4a.59.59,0,0,1,.18-.44.61.61,0,0,1,.42-.17h2.37a.58.58,0,0,1,.61.61v4h3a.54.54,0,0,1,.41.17.58.58,0,0,1,.17.43v1.64a.6.6,0,0,1-.17.44.58.58,0,0,1-.41.17h-3v4.78a2.65,2.65,0,0,0,.32,1.44,1.24,1.24,0,0,0,1.15.52h1.76a.57.57,0,0,1,.41.17.53.53,0,0,1,.17.41v1.79A.58.58,0,0,1,203,22a.57.57,0,0,1-.41.17Z"/><path d="M210.89,22.39a6.16,6.16,0,0,1-4.41-1.55,6.21,6.21,0,0,1-1.72-4.5v-1a7.21,7.21,0,0,1,.84-3.21,5.06,5.06,0,0,1,2.1-2,6.68,6.68,0,0,1,3.17-.71,6.39,6.39,0,0,1,3.4.83,5.24,5.24,0,0,1,2,2.27,7.55,7.55,0,0,1,.69,3.3v.56a.55.55,0,0,1-.18.41.61.61,0,0,1-.42.17H208.5v.19a3.94,3.94,0,0,0,.3,1.41,2.59,2.59,0,0,0,.8,1,2,2,0,0,0,1.25.39,2.55,2.55,0,0,0,1-.17,2.14,2.14,0,0,0,.64-.41,3,3,0,0,0,.37-.41,1.66,1.66,0,0,1,.35-.31,1.12,1.12,0,0,1,.43-.06h2.51a.61.61,0,0,1,.4.14.4.4,0,0,1,.13.37,2,2,0,0,1-.4,1,4.42,4.42,0,0,1-1.1,1.11,6.31,6.31,0,0,1-1.8.9A7.48,7.48,0,0,1,210.89,22.39Zm-2.39-7.71h4.74v0a3.7,3.7,0,0,0-.28-1.51,2.26,2.26,0,0,0-.81-1,2.46,2.46,0,0,0-2.56,0,2.4,2.4,0,0,0-.81,1,3.7,3.7,0,0,0-.28,1.51Z"/><path d="M224.09,22.39a5.6,5.6,0,0,1-2.15-.4,4.2,4.2,0,0,1-1.59-1.16,5.22,5.22,0,0,1-1-1.81,9.75,9.75,0,0,1-.41-2.34c0-.3,0-.58,0-.83s0-.52,0-.81a8.63,8.63,0,0,1,.4-2.3,5.8,5.8,0,0,1,1-1.8,4.31,4.31,0,0,1,1.6-1.18,5.3,5.3,0,0,1,2.16-.42,5,5,0,0,1,2.15.42,4.38,4.38,0,0,1,1.48,1.1V5.59a.58.58,0,0,1,.6-.61h2.49a.57.57,0,0,1,.41.17.62.62,0,0,1,.17.44v16a.62.62,0,0,1-.17.44.57.57,0,0,1-.41.17h-2.32a.57.57,0,0,1-.41-.17.62.62,0,0,1-.17-.44v-.82a4.93,4.93,0,0,1-1.52,1.2A5.06,5.06,0,0,1,224.09,22.39Zm1.11-2.9a2.34,2.34,0,0,0,1.44-.41,2.48,2.48,0,0,0,.8-1,4,4,0,0,0,.28-1.36c0-.3.05-.61.05-.92a8.69,8.69,0,0,0-.05-.89,3.62,3.62,0,0,0-.29-1.27,2.47,2.47,0,0,0-.81-1,2.38,2.38,0,0,0-1.42-.38,2.42,2.42,0,0,0-1.45.39,2.22,2.22,0,0,0-.76,1.06,5.68,5.68,0,0,0-.28,1.42,9.39,9.39,0,0,0,0,1.5A5.76,5.76,0,0,0,223,18a2.24,2.24,0,0,0,.76,1.05A2.42,2.42,0,0,0,225.2,19.49Z"/><path d="M77.4,47.63a.58.58,0,0,1-.44-.17A.59.59,0,0,1,76.8,47V31.32a.6.6,0,0,1,.16-.44.62.62,0,0,1,.44-.17H88.18a.62.62,0,0,1,.44.17.6.6,0,0,1,.16.44v2a.55.55,0,0,1-.6.6H80.57v4.09H87.7a.58.58,0,0,1,.6.6v2.06a.57.57,0,0,1-.17.41.6.6,0,0,1-.43.17H80.57V47a.6.6,0,0,1-.17.43.58.58,0,0,1-.44.17Z"/><path d="M91.76,33.13a.58.58,0,0,1-.58-.61V30.59a.6.6,0,0,1,.17-.45.54.54,0,0,1,.41-.18H94.3a.6.6,0,0,1,.44.18.61.61,0,0,1,.18.45v1.93a.57.57,0,0,1-.18.44.64.64,0,0,1-.44.17Zm.07,14.5a.53.53,0,0,1-.41-.17.6.6,0,0,1-.17-.43V35.67a.6.6,0,0,1,.17-.44.57.57,0,0,1,.41-.17h2.42a.6.6,0,0,1,.43.17.6.6,0,0,1,.17.44V47a.6.6,0,0,1-.17.43.56.56,0,0,1-.43.17Z"/><path d="M98.45,47.63a.53.53,0,0,1-.41-.17.6.6,0,0,1-.17-.43V35.67a.6.6,0,0,1,.17-.44.57.57,0,0,1,.41-.17h2.37a.62.62,0,0,1,.44.17.6.6,0,0,1,.16.44v.94A5,5,0,0,1,103,35.33a5.25,5.25,0,0,1,2.42-.51,4.75,4.75,0,0,1,2.5.64,4.52,4.52,0,0,1,1.7,1.86,6.54,6.54,0,0,1,.61,3V47a.6.6,0,0,1-.6.6H107.1a.56.56,0,0,1-.43-.17.6.6,0,0,1-.17-.43v-6.6a2.92,2.92,0,0,0-.62-2,2.26,2.26,0,0,0-1.8-.71,2.4,2.4,0,0,0-1.81.71,2.8,2.8,0,0,0-.68,2V47a.56.56,0,0,1-.17.43.53.53,0,0,1-.41.17Z"/><path d="M116.87,47.87a5.21,5.21,0,0,1-2.3-.49A4.36,4.36,0,0,1,113,46a3.22,3.22,0,0,1-.6-1.89,3.15,3.15,0,0,1,1.39-2.71,8.59,8.59,0,0,1,3.66-1.35l3.17-.46V39.2a2.15,2.15,0,0,0-.44-1.45,1.9,1.9,0,0,0-1.52-.51,2.31,2.31,0,0,0-1.28.31,2.27,2.27,0,0,0-.75.82.62.62,0,0,1-.56.32h-2.29a.5.5,0,0,1-.41-.16.42.42,0,0,1-.12-.37,2,2,0,0,1,.31-1,4,4,0,0,1,1-1.1,5.44,5.44,0,0,1,1.66-.91,7.53,7.53,0,0,1,2.49-.36,8.31,8.31,0,0,1,2.61.36,4.34,4.34,0,0,1,1.75,1,4.14,4.14,0,0,1,1,1.51,5.33,5.33,0,0,1,.32,1.85V47a.6.6,0,0,1-.17.43.58.58,0,0,1-.44.17h-2.37a.53.53,0,0,1-.41-.17.6.6,0,0,1-.17-.43v-.9a3.59,3.59,0,0,1-.84.86,4.33,4.33,0,0,1-1.27.64A5.6,5.6,0,0,1,116.87,47.87Zm1-2.51a2.9,2.9,0,0,0,1.42-.34,2.32,2.32,0,0,0,1-1,3.7,3.7,0,0,0,.37-1.76v-.41l-2.25.36a4.58,4.58,0,0,0-1.91.65,1.3,1.3,0,0,0-.61,1.06,1.24,1.24,0,0,0,.28.8,1.64,1.64,0,0,0,.74.51A2.87,2.87,0,0,0,117.84,45.36Z"/><path d="M127.77,47.63a.53.53,0,0,1-.41-.17.6.6,0,0,1-.17-.43V35.67a.6.6,0,0,1,.17-.44.57.57,0,0,1,.41-.17h2.37a.62.62,0,0,1,.44.17.6.6,0,0,1,.16.44v.94a5,5,0,0,1,1.62-1.28,5.25,5.25,0,0,1,2.42-.51,4.75,4.75,0,0,1,2.5.64A4.43,4.43,0,0,1,139,37.32a6.41,6.41,0,0,1,.62,3V47a.6.6,0,0,1-.6.6h-2.57a.56.56,0,0,1-.43-.17.6.6,0,0,1-.17-.43v-6.6a3,3,0,0,0-.62-2,2.26,2.26,0,0,0-1.8-.71,2.4,2.4,0,0,0-1.81.71,2.8,2.8,0,0,0-.68,2V47a.56.56,0,0,1-.17.43.53.53,0,0,1-.41.17Z"/><path d="M148.07,47.87a6.93,6.93,0,0,1-3.1-.65,5,5,0,0,1-2.12-1.9,6.09,6.09,0,0,1-.84-3c0-.26,0-.59,0-1s0-.72,0-1a6.14,6.14,0,0,1,.83-3,5,5,0,0,1,2.12-1.9,7.14,7.14,0,0,1,3.11-.65,7.53,7.53,0,0,1,2.76.45,5.79,5.79,0,0,1,1.86,1.12,4.83,4.83,0,0,1,1.08,1.42,3.56,3.56,0,0,1,.37,1.29.49.49,0,0,1-.16.42.58.58,0,0,1-.42.18H151a.49.49,0,0,1-.37-.13,1.4,1.4,0,0,1-.25-.37,2.58,2.58,0,0,0-.87-1.21,2.34,2.34,0,0,0-1.33-.37,2.19,2.19,0,0,0-1.72.71,3.37,3.37,0,0,0-.68,2.17c0,.63,0,1.2,0,1.72a3.43,3.43,0,0,0,.69,2.17,2.2,2.2,0,0,0,1.71.68,2.29,2.29,0,0,0,1.35-.36,2.74,2.74,0,0,0,.85-1.21,1,1,0,0,1,.24-.38A.56.56,0,0,1,151,43h2.59a.58.58,0,0,1,.42.18.49.49,0,0,1,.16.42,3.44,3.44,0,0,1-.23,1,4.46,4.46,0,0,1-.65,1.14,5.42,5.42,0,0,1-1.15,1.07,5.83,5.83,0,0,1-1.7.8A8.21,8.21,0,0,1,148.07,47.87Z"/><path d="M162.12,47.87a5.64,5.64,0,0,1-6.14-6v-1a7.17,7.17,0,0,1,.84-3.2,5,5,0,0,1,2.11-2.06,6.75,6.75,0,0,1,3.16-.71,6.46,6.46,0,0,1,3.4.83,5.32,5.32,0,0,1,2,2.28,7.55,7.55,0,0,1,.69,3.3v.55a.54.54,0,0,1-.18.41.57.57,0,0,1-.42.17h-7.91v.2A3.82,3.82,0,0,0,160,44a2.48,2.48,0,0,0,.79,1,2,2,0,0,0,1.25.38,2.38,2.38,0,0,0,1-.17,2.14,2.14,0,0,0,.64-.41,3.27,3.27,0,0,0,.38-.41,1.18,1.18,0,0,1,.35-.3,1.06,1.06,0,0,1,.42-.06h2.51a.58.58,0,0,1,.4.13.4.4,0,0,1,.13.38,2,2,0,0,1-.39,1,4.6,4.6,0,0,1-1.1,1.11,6.32,6.32,0,0,1-1.8.91A7.85,7.85,0,0,1,162.12,47.87Zm-2.4-7.71h4.74v0a3.7,3.7,0,0,0-.28-1.51,2.34,2.34,0,0,0-3.37-1,2.37,2.37,0,0,0-.81,1,3.87,3.87,0,0,0-.28,1.51Z"/><circle cx="27.53" cy="27.53" r="27.53" style="fill:url(#linear-gradient)"/><path d="M11.18,36.94a.58.58,0,0,1-.57-.57.88.88,0,0,1,0-.24L17,18.84a1.08,1.08,0,0,1,.32-.51,1,1,0,0,1,.67-.21h3.44a1,1,0,0,1,.67.21,1.18,1.18,0,0,1,.33.51l6.39,17.29a.88.88,0,0,1,0,.24.53.53,0,0,1-.16.39.52.52,0,0,1-.4.18h-2.8a.82.82,0,0,1-.59-.19.84.84,0,0,1-.24-.35l-1.16-3H16l-1.16,3a.84.84,0,0,1-.24.35.82.82,0,0,1-.59.19Zm5.77-7h5.57l-2.77-7.74Z" style="fill:#fff"/><path d="M31.78,36.94a.69.69,0,0,1-.48-.19.66.66,0,0,1-.19-.49V18.79a.62.62,0,0,1,.19-.48.65.65,0,0,1,.48-.19h12a.65.65,0,0,1,.68.67v2.29a.69.69,0,0,1-.19.48.66.66,0,0,1-.49.19H35.31v4.54h7.93a.65.65,0,0,1,.48.19.69.69,0,0,1,.19.48v2.29a.66.66,0,0,1-.19.46.68.68,0,0,1-.48.18H35.31v6.37a.65.65,0,0,1-.68.68Z" style="fill:#fff"/></svg>