<svg id="Layer_1" data-name="Layer 1" xmlns="http://www.w3.org/2000/svg" viewBox="0 0 26.39 26.39"><circle cx="13.2" cy="13.2" r="13.2" style="fill:#00a6fb"/><path d="M13.2,3.08A1.76,1.76,0,1,0,15,4.84,1.76,1.76,0,0,0,13.2,3.08ZM5.28,7A1.76,1.76,0,1,0,7,8.8,1.76,1.76,0,0,0,5.28,7ZM21.12,7A1.76,1.76,0,1,0,22.88,8.8,1.76,1.76,0,0,0,21.12,7Zm-8.36.4V10.6a2.12,2.12,0,0,1,.44,0,2.18,2.18,0,0,1,.44,0V7.44a3.27,3.27,0,0,1-.44,0A3.13,3.13,0,0,1,12.76,7.44Zm5.87,2.23-3.37,1.88a2.74,2.74,0,0,1,.42.77l3.38-1.88A2.32,2.32,0,0,1,18.63,9.67Zm-10.87,0a2.54,2.54,0,0,1-.43.77l3.37,1.9a2.8,2.8,0,0,1,.42-.78Zm5.44,1.76A1.76,1.76,0,1,0,15,13.2,1.76,1.76,0,0,0,13.2,11.44Zm-2.49,2.62L7.33,16a2.49,2.49,0,0,1,.43.76l3.37-1.88A2.51,2.51,0,0,1,10.71,14.06Zm5,0c-.06.14-.12.27-.19.4h0a2.31,2.31,0,0,1-.25.36l3.39,1.86a2.74,2.74,0,0,1,.42-.77Zm-2.92,1.7V19a2.12,2.12,0,0,1,.44,0,2.18,2.18,0,0,1,.44,0V15.8a3.27,3.27,0,0,1-.44,0A3.13,3.13,0,0,1,12.76,15.8Zm-7.48,0A1.76,1.76,0,1,0,7,17.6,1.76,1.76,0,0,0,5.28,15.84Zm15.84,0a1.76,1.76,0,1,0,1.76,1.76A1.76,1.76,0,0,0,21.12,15.84Zm-7.92,4A1.76,1.76,0,1,0,15,21.56,1.76,1.76,0,0,0,13.2,19.8Z" style="fill:#fff"/></svg>